<svg width="24" height="23" viewBox="0 0 24 23" fill="none" xmlns="http://www.w3.org/2000/svg">
<rect x="0.75" y="0.25" width="22.5" height="22.5" rx="11.25" stroke="#F44336" stroke-width="0.5"/>
<path d="M9.44499 7.95503C9.17162 7.68166 8.72841 7.68166 8.45504 7.95502C8.18167 8.22839 8.18167 8.67161 8.45504 8.94497L11.0101 11.5L8.45503 14.055C8.18166 14.3284 8.18166 14.7716 8.45502 15.045C8.72839 15.3183 9.17161 15.3183 9.44497 15.045L12 12.49L14.555 15.045C14.8284 15.3184 15.2716 15.3184 15.545 15.045C15.8183 14.7716 15.8183 14.3284 15.545 14.055L12.99 11.5L15.545 8.94499C15.8184 8.67162 15.8184 8.22841 15.545 7.95504C15.2716 7.68167 14.8284 7.68167 14.555 7.95504L12 10.5101L9.44499 7.95503Z" fill="#F44336" stroke="#F44336" stroke-width="0.5"/>
</svg>
