<svg width="18" height="19" viewBox="0 0 18 19" fill="none" xmlns="http://www.w3.org/2000/svg">
<path d="M7.22222 18.2245C7.14227 18.2259 7.0636 18.2043 6.99556 18.1623C6.92921 18.123 6.87424 18.067 6.83606 18C6.79788 17.933 6.77779 17.8572 6.77778 17.7801V11.509L1.09333 4.07341C1.03313 3.99583 1.00031 3.9005 1 3.8023V1.22008C1 1.10221 1.04683 0.989159 1.13017 0.905809C1.21352 0.82246 1.32657 0.775635 1.44444 0.775635H16.5556C16.6734 0.775635 16.7865 0.82246 16.8698 0.905809C16.9532 0.989159 17 1.10221 17 1.22008V3.8023C16.9997 3.9005 16.9669 3.99583 16.9067 4.07341L11.2222 11.509V15.8423C11.2224 15.9223 11.2011 16.0008 11.1604 16.0696C11.1197 16.1385 11.0613 16.195 10.9911 16.2334L7.43556 18.1712C7.37003 18.2066 7.29668 18.2249 7.22222 18.2245ZM1.88889 3.65119L7.57333 11.0867C7.63354 11.1643 7.66636 11.2597 7.66667 11.3579V17.0334L10.3333 15.5801V11.3579C10.3336 11.2597 10.3665 11.1643 10.4267 11.0867L16.1111 3.65119V1.66452H1.88889V3.65119Z" fill="#333333" stroke="#333333" stroke-width="0.7"/>
</svg>
