<svg width="24" height="25" viewBox="0 0 24 25" fill="none" xmlns="http://www.w3.org/2000/svg">
<path fill-rule="evenodd" clip-rule="evenodd" d="M10.75 4C6.74594 4 3.5 7.24594 3.5 11.25C3.5 15.2541 6.74594 18.5 10.75 18.5C12.4277 18.5 13.9722 17.9302 15.2007 16.9735L19.4636 21.2364C19.8151 21.5879 20.3849 21.5879 20.7364 21.2364C21.0878 20.8849 21.0878 20.3151 20.7364 19.9636L16.4735 15.7007C17.4302 14.4722 18 12.9277 18 11.25C18 7.24594 14.7541 4 10.75 4ZM10.75 5.8C7.74005 5.8 5.3 8.24005 5.3 11.25C5.3 14.26 7.74005 16.7 10.75 16.7C13.76 16.7 16.2 14.26 16.2 11.25C16.2 8.24005 13.76 5.8 10.75 5.8Z" fill="#333333"/>
</svg>
