<svg width="135" height="26" viewBox="0 0 135 26" fill="none" xmlns="http://www.w3.org/2000/svg">
<path d="M0.808594 5.42188C0.667969 4.97656 0.570312 4.66016 0.515625 4.47266C0.46875 4.27734 0.433594 4.07031 0.410156 3.85156C0.394531 3.625 0.386719 3.29688 0.386719 2.86719C1.04297 2.5 1.65625 2.23828 2.22656 2.08203C2.80469 1.91797 3.45703 1.83594 4.18359 1.83594C6.34766 1.83594 7.42969 2.91797 7.42969 5.08203C7.42969 5.76172 7.35938 6.76953 7.21875 8.10547C7.08594 9.44141 6.91016 11.0586 6.69141 12.957C6.55859 14.0586 6.46094 14.9141 6.39844 15.5234C6.54688 15.6875 6.72266 15.793 6.92578 15.8398C7.03516 15.8867 7.35938 15.707 7.89844 15.3008C8.44531 14.8867 9 14.3945 9.5625 13.8242C10.1328 13.2461 10.5391 12.7266 10.7812 12.2656C10.5625 8.04688 10.2227 4.92969 9.76172 2.91406C10.1133 2.5625 10.5703 2.29687 11.1328 2.11719C11.6953 1.92969 12.2422 1.83594 12.7734 1.83594C13.2266 1.83594 13.6602 1.88672 14.0742 1.98828C14.4961 2.08203 14.8594 2.24219 15.1641 2.46875C15.4062 3 15.5273 3.87109 15.5273 5.08203C15.5273 5.75391 15.4609 6.85547 15.3281 8.38672C15.2031 9.91016 15.043 11.4219 14.8477 12.9219C14.6602 14.4141 14.4766 15.5 14.2969 16.1797L15.7383 15.5469C15.9805 15.7969 16.1953 16.1133 16.3828 16.4961C16.5703 16.8711 16.6914 17.3008 16.7461 17.7852C16.6211 18.0352 16.3633 18.3555 15.9727 18.7461C15.582 19.1367 15.1016 19.4844 14.5312 19.7891C13.9688 20.0859 13.375 20.2344 12.75 20.2344C12.0547 20.2344 11.5195 20.0273 11.1445 19.6133C10.7773 19.1992 10.5938 18.668 10.5938 18.0195C10.5938 17.8633 10.625 17.5234 10.6875 17C10.7578 16.4766 10.8203 16.1523 10.875 16.0273L10.5234 15.9102C10.1016 16.7461 9.66016 17.4766 9.19922 18.1016C8.74609 18.7266 8.20703 19.2383 7.58203 19.6367C6.95703 20.0352 6.24609 20.2344 5.44922 20.2344C4.20703 20.2344 3.33594 19.793 2.83594 18.9102C2.33594 18.0195 2.08594 16.9062 2.08594 15.5703C2.08594 13.9531 2.10547 12.1055 2.14453 10.0273C2.18359 7.94922 2.24609 6.47656 2.33203 5.60938L0.808594 5.42188ZM18.9609 15.8633C19.6484 16.1367 20.1992 16.3477 20.6133 16.4961C21.0273 16.6445 21.4805 16.7734 21.9727 16.8828C22.4727 16.9922 22.9688 17.0469 23.4609 17.0469C23.6797 17.0469 23.8359 17.0273 23.9297 16.9883C23.9531 16.957 23.9727 16.9102 23.9883 16.8477C24.0117 16.7773 24.0234 16.707 24.0234 16.6367C24.0234 16.4805 23.9336 16.3516 23.7539 16.25C23.4727 16.0938 22.9727 15.8477 22.2539 15.5117C21.2695 15.043 20.4883 14.625 19.9102 14.2578C19.3398 13.8906 18.8555 13.4023 18.457 12.793C18.0664 12.1836 17.8711 11.418 17.8711 10.4961C17.8711 9.17578 18.2656 8.11719 19.0547 7.32031C19.8438 6.51562 21.0938 6.11328 22.8047 6.11328C24.8438 6.11328 26.4297 6.37891 27.5625 6.91016C27.6172 7.13672 27.6445 7.42188 27.6445 7.76562C27.6445 8.42188 27.543 9.09375 27.3398 9.78125C27.1367 10.4609 26.8711 10.9648 26.543 11.293C26.0977 11.1445 25.4688 10.9062 24.6562 10.5781C24.0625 10.3438 23.5898 10.1641 23.2383 10.0391C22.8945 9.90625 22.5781 9.8125 22.2891 9.75781C22.1328 9.79688 22.0078 9.89062 21.9141 10.0391C21.8203 10.1797 21.7734 10.3477 21.7734 10.543C21.7734 10.7148 21.8242 10.8594 21.9258 10.9766C22.0273 11.0938 22.1406 11.1875 22.2656 11.2578C22.3984 11.3203 22.5859 11.4062 22.8281 11.5156C22.9531 11.5703 23.0703 11.6211 23.1797 11.668C23.2891 11.707 23.3906 11.7461 23.4844 11.7852C24.0938 12.043 24.5742 12.2539 24.9258 12.418C25.2773 12.582 25.6172 12.7773 25.9453 13.0039C26.5469 13.418 27.0195 13.8906 27.3633 14.4219C27.707 14.9531 27.8789 15.5352 27.8789 16.168C27.8789 17.043 27.6289 17.8008 27.1289 18.4414C26.6367 19.0742 26.0039 19.5352 25.2305 19.8242C24.8242 19.9727 24.3789 20.0781 23.8945 20.1406C23.418 20.2109 22.8594 20.2461 22.2188 20.2461C21.4609 20.2461 20.6797 20.1016 19.875 19.8125C19.0781 19.5156 18.4688 19.0234 18.0469 18.3359C18.0547 17.8594 18.1172 17.4453 18.2344 17.0938C18.3594 16.7344 18.6016 16.3242 18.9609 15.8633ZM29.1797 13.1914C29.1797 11.8398 29.4062 10.6328 29.8594 9.57031C30.3125 8.50781 31.0117 7.66797 31.957 7.05078C32.9102 6.42578 34.0977 6.11328 35.5195 6.11328C36.2617 6.11328 37.0039 6.20312 37.7461 6.38281C38.4883 6.55469 39.1172 6.84375 39.6328 7.25C40.1094 7.63281 40.4531 8.14062 40.6641 8.77344C40.8828 9.39844 40.9922 10.0938 40.9922 10.8594C40.9922 11.3672 40.9492 11.8867 40.8633 12.418C40.7695 12.5742 40.5859 12.7812 40.3125 13.0391C40.0391 13.2891 39.7188 13.5352 39.3516 13.7773C38.9844 14.0195 38.6289 14.207 38.2852 14.3398C37.957 14.3633 37.6172 14.375 37.2656 14.375C36.6484 14.375 36.0234 14.3477 35.3906 14.293C34.7578 14.2383 34.2031 14.1758 33.7266 14.1055C33.7891 14.7695 33.9922 15.3477 34.3359 15.8398C34.6797 16.332 35.2266 16.5781 35.9766 16.5781C36.0469 16.5781 36.1602 16.5703 36.3164 16.5547C36.793 16.5078 37.3477 16.3828 37.9805 16.1797C38.6211 15.9688 39.2578 15.7266 39.8906 15.4531C40.1875 15.75 40.4062 16.0469 40.5469 16.3438C40.6875 16.6406 40.7852 17.0664 40.8398 17.6211C40.5977 17.9023 40.2031 18.2461 39.6562 18.6523C39.1172 19.0586 38.457 19.4258 37.6758 19.7539C36.8945 20.0742 36.0781 20.2344 35.2266 20.2344C33.9453 20.2344 32.8477 19.9258 31.9336 19.3086C31.0273 18.6836 30.3398 17.8398 29.8711 16.7773C29.4102 15.707 29.1797 14.5117 29.1797 13.1914ZM36.7266 10.4961C36.6172 10.3789 36.4336 10.2891 36.1758 10.2266C35.918 10.1562 35.6484 10.1211 35.3672 10.1211C35.1406 10.1211 34.9102 10.1406 34.6758 10.1797C34.4492 10.2188 34.3125 10.2617 34.2656 10.3086C34 10.832 33.832 11.4258 33.7617 12.0898L36.8906 11.7852L36.7266 10.4961ZM43.7344 16.8594C43.7344 16.5234 43.7422 15.6992 43.7578 14.3867C43.7812 11.8086 43.793 10.3984 43.793 10.1562L42.7148 9.98047C42.5664 9.53516 42.4609 9.11719 42.3984 8.72656C42.3359 8.33594 42.3047 7.94141 42.3047 7.54297C42.3047 7.37891 42.3086 7.25391 42.3164 7.16797C42.4492 7.05078 42.6562 6.91016 42.9375 6.74609C43.2188 6.58203 43.5508 6.4375 43.9336 6.3125C44.3164 6.17969 44.707 6.11328 45.1055 6.11328C46.0352 6.11328 46.707 6.32031 47.1211 6.73438C47.543 7.14844 47.7539 7.75391 47.7539 8.55078C47.7539 9.03516 47.6914 9.65625 47.5664 10.4141C47.4492 11.1641 47.3281 11.6992 47.2031 12.0195L47.625 12.0898L48.3281 9.44141C48.6406 8.24609 49.0312 7.39453 49.5 6.88672C49.9688 6.37109 50.4961 6.11328 51.082 6.11328C51.4648 6.11328 51.8438 6.17188 52.2188 6.28906C52.6016 6.40625 52.8945 6.55078 53.0977 6.72266C53.3164 7.20703 53.4258 7.85156 53.4258 8.65625C53.4258 9.21875 53.3711 9.77734 53.2617 10.332C53.1523 10.8789 53.0117 11.3203 52.8398 11.6562L50.3789 11.3281C49.8789 11.8594 49.3477 12.5977 48.7852 13.543C48.2227 14.4805 47.7734 15.3438 47.4375 16.1328L47.4258 16.7422L49.6992 16.2031C50.082 16.7891 50.3047 17.4844 50.3672 18.2891C50.3672 18.3359 50.1914 18.5273 49.8398 18.8633C49.4883 19.1992 49.0234 19.5117 48.4453 19.8008C47.875 20.082 47.2188 20.2227 46.4766 20.2227C45.7109 20.2227 45.0703 20.0195 44.5547 19.6133C44.0469 19.1992 43.7773 18.5039 43.7461 17.5273C43.7383 17.4102 43.7344 17.1875 43.7344 16.8594ZM54.1523 17.4336C54.1523 17.0352 54.2266 16.6328 54.375 16.2266C54.5234 15.8203 54.7539 15.4375 55.0664 15.0781C56.207 15.5781 57.1992 15.9609 58.043 16.2266C58.8945 16.4922 59.7695 16.625 60.668 16.625C60.832 16.625 61 16.6094 61.1719 16.5781C61.3516 16.5469 61.4922 16.5039 61.5938 16.4492C61.6328 16.3633 61.6641 16.2539 61.6875 16.1211C61.7109 15.9805 61.7227 15.8672 61.7227 15.7812C61.7227 15.3984 61.5391 15.0703 61.1719 14.7969C60.8047 14.5234 60.3203 14.25 59.7188 13.9766L59.3086 13.7773C58.1367 13.1758 57.1953 12.6367 56.4844 12.1602C55.7812 11.6758 55.1836 11.043 54.6914 10.2617C54.207 9.47266 53.9648 8.50781 53.9648 7.36719C53.9648 5.69531 54.4297 4.35547 55.3594 3.34766C56.2969 2.33984 57.7852 1.83594 59.8242 1.83594C61.5664 1.83594 62.9453 1.94141 63.9609 2.15234C64.3828 2.40234 64.75 2.66406 65.0625 2.9375C65.3828 3.20313 65.6875 3.52734 65.9766 3.91016C65.9766 4.45703 65.9219 5.05078 65.8125 5.69141C65.7109 6.32422 65.5664 6.90625 65.3789 7.4375C65.1992 7.96875 65.0039 8.35156 64.793 8.58594C64.6133 8.67188 64.4141 8.73828 64.1953 8.78516C63.9766 8.82422 63.707 8.84375 63.3867 8.84375C63.0508 8.84375 62.7773 8.82031 62.5664 8.77344C62.3555 8.72656 62.1602 8.64844 61.9805 8.53906L61.6172 6.10156C61.1641 5.97656 60.6836 5.88672 60.1758 5.83203C59.668 5.76953 59.3242 5.74219 59.1445 5.75C58.8555 5.88281 58.6562 6.07031 58.5469 6.3125C58.4453 6.54688 58.3945 6.82812 58.3945 7.15625C58.3945 7.50781 58.4883 7.8125 58.6758 8.07031C58.8711 8.32031 59.1055 8.52734 59.3789 8.69141C59.6523 8.85547 60.0039 9.03906 60.4336 9.24219L60.9492 9.5C62.0664 10.0859 62.9453 10.5977 63.5859 11.0352C64.2266 11.4727 64.7617 12.0273 65.1914 12.6992C65.6289 13.3633 65.8477 14.168 65.8477 15.1133C65.8477 16.2148 65.5586 17.1641 64.9805 17.9609C64.4023 18.75 63.6602 19.3203 62.7539 19.6719C62.2617 19.8672 61.7188 20.0078 61.125 20.0938C60.5312 20.1797 59.8438 20.2227 59.0625 20.2227C58.5312 20.2227 57.9609 20.1562 57.3516 20.0234C56.7422 19.8906 56.1484 19.6562 55.5703 19.3203C55 18.9844 54.543 18.5352 54.1992 17.9727C54.168 17.8242 54.1523 17.6445 54.1523 17.4336ZM67.0781 9.94531C66.9141 9.4375 66.8047 8.98438 66.75 8.58594C66.7031 8.1875 66.6797 7.67188 66.6797 7.03906C66.8047 6.92969 67.0078 6.80469 67.2891 6.66406C67.5703 6.51562 67.9062 6.38672 68.2969 6.27734C68.6875 6.16797 69.0898 6.11328 69.5039 6.11328C70.4492 6.11328 71.1172 6.31641 71.5078 6.72266C71.9062 7.12891 72.1055 7.73828 72.1055 8.55078C72.1055 9.00391 72.0391 9.61719 71.9062 10.3906C71.6875 11.6328 71.5781 12.2852 71.5781 12.3477C71.5781 12.3867 71.6055 12.4258 71.6602 12.4648C71.7148 12.4961 71.7734 12.5117 71.8359 12.5117C71.9062 12.5117 71.9531 12.4844 71.9766 12.4297L72.0938 11.9609L72.3516 10.9648C72.7344 9.51953 73.3047 8.35156 74.0625 7.46094C74.8203 6.5625 75.7734 6.11328 76.9219 6.11328C77.7812 6.11328 78.4805 6.30078 79.0195 6.67578C79.5664 7.04297 79.9609 7.53125 80.2031 8.14062C80.4453 8.74219 80.5664 9.40625 80.5664 10.1328C80.5664 11.1172 80.4727 12.2227 80.2852 13.4492C80.0977 14.668 79.8477 15.8086 79.5352 16.8711C79.2305 17.9102 78.7227 18.7344 78.0117 19.3438C77.3086 19.9453 76.4297 20.2461 75.375 20.2461C74.9922 20.2461 74.543 20.1836 74.0273 20.0586C73.5195 19.9414 72.875 19.7344 72.0938 19.4375L71.625 21.6523L71.6484 21.6758L73.8867 21.5234C74.0352 21.7344 74.1445 21.9883 74.2148 22.2852C74.293 22.5898 74.3594 22.9375 74.4141 23.3281L74.4492 23.5625C74.4492 23.5938 74.2773 23.7383 73.9336 23.9961C73.5898 24.2617 73.1328 24.5039 72.5625 24.7227C71.9922 24.9492 71.3359 25.0625 70.5938 25.0625C68.9141 25.0625 68.0742 24.168 68.0742 22.3789V21.5703C68.0742 19.1875 68.0898 17.0664 68.1211 15.207C68.1602 13.3398 68.2383 11.6562 68.3555 10.1562L67.0781 9.94531ZM75.3281 17.1172C75.6094 16.0625 75.75 14.4648 75.75 12.3242C75.75 11.957 75.7305 11.6602 75.6914 11.4336C75.5117 11.207 75.2539 11.0938 74.918 11.0938C74.8086 11.1875 74.4336 11.8047 73.793 12.9453C73.1523 14.0781 72.6797 14.9492 72.375 15.5586V16.1211C72.8047 16.418 73.3008 16.6641 73.8633 16.8594C74.4258 17.0469 74.8555 17.1406 75.1523 17.1406C75.2227 17.1406 75.2812 17.1328 75.3281 17.1172ZM82.6523 12.3828C82.6523 8.75781 82.7227 6.26562 82.8633 4.90625L81.5391 4.67188C81.3516 3.95313 81.2578 3.17969 81.2578 2.35156C81.375 2.20312 81.5938 2.01953 81.9141 1.80078C82.2344 1.58203 82.6055 1.39062 83.0273 1.22656C83.457 1.0625 83.8828 0.980469 84.3047 0.980469C85.2656 0.980469 85.9805 1.22656 86.4492 1.71875C86.918 2.21094 87.1523 2.96484 87.1523 3.98047C87.1523 4.42578 87.1133 5.14453 87.0352 6.13672C86.957 7.12109 86.8438 8.17969 86.6953 9.3125C86.5469 10.4375 86.375 11.4414 86.1797 12.3242C86.1797 12.3711 86.207 12.4141 86.2617 12.4531C86.3164 12.4922 86.375 12.5117 86.4375 12.5117C86.5078 12.5117 86.5547 12.4844 86.5781 12.4297C86.8906 11.1875 87.2031 10.1484 87.5156 9.3125C87.8281 8.47656 88.3008 7.73438 88.9336 7.08594C89.5664 6.4375 90.3867 6.11328 91.3945 6.11328C92.6445 6.11328 93.543 6.49609 94.0898 7.26172C94.6367 8.01953 94.9102 8.97656 94.9102 10.1328C94.9102 11.1641 94.7891 12.1602 94.5469 13.1211C94.3047 14.0742 94.0039 15.0703 93.6445 16.1094C93.6602 16.0703 93.6055 16.2227 93.4805 16.5664L93.5039 16.5898L95.2383 15.8633C95.8477 16.3867 96.2031 17.082 96.3047 17.9492C96.3047 18.0039 96.1289 18.2305 95.7773 18.6289C95.4258 19.0195 94.9609 19.3867 94.3828 19.7305C93.8125 20.0664 93.1562 20.2344 92.4141 20.2344C91.6719 20.2344 91.0664 20.0352 90.5977 19.6367C90.1289 19.2383 89.8945 18.5586 89.8945 17.5977C89.8945 16.832 89.9258 15.8086 89.9883 14.5273C90.0508 13.2461 90.1133 12.2148 90.1758 11.4336C89.9727 11.2148 89.7227 11.0977 89.4258 11.082C89.1523 11.4336 88.75 12.1367 88.2188 13.1914C87.6875 14.2461 87.3125 15.0352 87.0938 15.5586C87.0781 15.668 87.0703 15.7734 87.0703 15.875C87.0703 16.2656 87.1289 16.793 87.2461 17.457C87.3633 18.1133 87.5078 18.7266 87.6797 19.2969C87.5391 19.5625 87.25 19.7852 86.8125 19.9648C86.375 20.1445 85.8359 20.2344 85.1953 20.2344C84.6172 20.2344 84.1523 20.1875 83.8008 20.0938C83.457 20 83.2148 19.9023 83.0742 19.8008C82.9336 19.6914 82.8633 19.625 82.8633 19.6016C82.8555 19.5312 82.8359 19.3477 82.8047 19.0508C82.7734 18.7461 82.7422 18.3242 82.7109 17.7852C82.6797 17.2383 82.6641 16.6172 82.6641 15.9219L82.6523 12.3828ZM97.1719 13.1914C97.1719 11.8398 97.3984 10.6328 97.8516 9.57031C98.3047 8.50781 99.0039 7.66797 99.9492 7.05078C100.902 6.42578 102.09 6.11328 103.512 6.11328C104.254 6.11328 104.996 6.20312 105.738 6.38281C106.48 6.55469 107.109 6.84375 107.625 7.25C108.102 7.63281 108.445 8.14062 108.656 8.77344C108.875 9.39844 108.984 10.0938 108.984 10.8594C108.984 11.3672 108.941 11.8867 108.855 12.418C108.762 12.5742 108.578 12.7812 108.305 13.0391C108.031 13.2891 107.711 13.5352 107.344 13.7773C106.977 14.0195 106.621 14.207 106.277 14.3398C105.949 14.3633 105.609 14.375 105.258 14.375C104.641 14.375 104.016 14.3477 103.383 14.293C102.75 14.2383 102.195 14.1758 101.719 14.1055C101.781 14.7695 101.984 15.3477 102.328 15.8398C102.672 16.332 103.219 16.5781 103.969 16.5781C104.039 16.5781 104.152 16.5703 104.309 16.5547C104.785 16.5078 105.34 16.3828 105.973 16.1797C106.613 15.9688 107.25 15.7266 107.883 15.4531C108.18 15.75 108.398 16.0469 108.539 16.3438C108.68 16.6406 108.777 17.0664 108.832 17.6211C108.59 17.9023 108.195 18.2461 107.648 18.6523C107.109 19.0586 106.449 19.4258 105.668 19.7539C104.887 20.0742 104.07 20.2344 103.219 20.2344C101.938 20.2344 100.84 19.9258 99.9258 19.3086C99.0195 18.6836 98.332 17.8398 97.8633 16.7773C97.4023 15.707 97.1719 14.5117 97.1719 13.1914ZM104.719 10.4961C104.609 10.3789 104.426 10.2891 104.168 10.2266C103.91 10.1562 103.641 10.1211 103.359 10.1211C103.133 10.1211 102.902 10.1406 102.668 10.1797C102.441 10.2188 102.305 10.2617 102.258 10.3086C101.992 10.832 101.824 11.4258 101.754 12.0898L104.883 11.7852L104.719 10.4961ZM111.727 16.8594C111.727 16.5234 111.734 15.6992 111.75 14.3867C111.773 11.8086 111.785 10.3984 111.785 10.1562L110.707 9.98047C110.559 9.53516 110.453 9.11719 110.391 8.72656C110.328 8.33594 110.297 7.94141 110.297 7.54297C110.297 7.37891 110.301 7.25391 110.309 7.16797C110.441 7.05078 110.648 6.91016 110.93 6.74609C111.211 6.58203 111.543 6.4375 111.926 6.3125C112.309 6.17969 112.699 6.11328 113.098 6.11328C114.027 6.11328 114.699 6.32031 115.113 6.73438C115.535 7.14844 115.746 7.75391 115.746 8.55078C115.746 9.03516 115.684 9.65625 115.559 10.4141C115.441 11.1641 115.32 11.6992 115.195 12.0195L115.617 12.0898L116.32 9.44141C116.633 8.24609 117.023 7.39453 117.492 6.88672C117.961 6.37109 118.488 6.11328 119.074 6.11328C119.457 6.11328 119.836 6.17188 120.211 6.28906C120.594 6.40625 120.887 6.55078 121.09 6.72266C121.309 7.20703 121.418 7.85156 121.418 8.65625C121.418 9.21875 121.363 9.77734 121.254 10.332C121.145 10.8789 121.004 11.3203 120.832 11.6562L118.371 11.3281C117.871 11.8594 117.34 12.5977 116.777 13.543C116.215 14.4805 115.766 15.3438 115.43 16.1328L115.418 16.7422L117.691 16.2031C118.074 16.7891 118.297 17.4844 118.359 18.2891C118.359 18.3359 118.184 18.5273 117.832 18.8633C117.48 19.1992 117.016 19.5117 116.438 19.8008C115.867 20.082 115.211 20.2227 114.469 20.2227C113.703 20.2227 113.062 20.0195 112.547 19.6133C112.039 19.1992 111.77 18.5039 111.738 17.5273C111.73 17.4102 111.727 17.1875 111.727 16.8594ZM122.273 13.1914C122.273 11.8398 122.5 10.6328 122.953 9.57031C123.406 8.50781 124.105 7.66797 125.051 7.05078C126.004 6.42578 127.191 6.11328 128.613 6.11328C129.355 6.11328 130.098 6.20312 130.84 6.38281C131.582 6.55469 132.211 6.84375 132.727 7.25C133.203 7.63281 133.547 8.14062 133.758 8.77344C133.977 9.39844 134.086 10.0938 134.086 10.8594C134.086 11.3672 134.043 11.8867 133.957 12.418C133.863 12.5742 133.68 12.7812 133.406 13.0391C133.133 13.2891 132.812 13.5352 132.445 13.7773C132.078 14.0195 131.723 14.207 131.379 14.3398C131.051 14.3633 130.711 14.375 130.359 14.375C129.742 14.375 129.117 14.3477 128.484 14.293C127.852 14.2383 127.297 14.1758 126.82 14.1055C126.883 14.7695 127.086 15.3477 127.43 15.8398C127.773 16.332 128.32 16.5781 129.07 16.5781C129.141 16.5781 129.254 16.5703 129.41 16.5547C129.887 16.5078 130.441 16.3828 131.074 16.1797C131.715 15.9688 132.352 15.7266 132.984 15.4531C133.281 15.75 133.5 16.0469 133.641 16.3438C133.781 16.6406 133.879 17.0664 133.934 17.6211C133.691 17.9023 133.297 18.2461 132.75 18.6523C132.211 19.0586 131.551 19.4258 130.77 19.7539C129.988 20.0742 129.172 20.2344 128.32 20.2344C127.039 20.2344 125.941 19.9258 125.027 19.3086C124.121 18.6836 123.434 17.8398 122.965 16.7773C122.504 15.707 122.273 14.5117 122.273 13.1914ZM129.82 10.4961C129.711 10.3789 129.527 10.2891 129.27 10.2266C129.012 10.1562 128.742 10.1211 128.461 10.1211C128.234 10.1211 128.004 10.1406 127.77 10.1797C127.543 10.2188 127.406 10.2617 127.359 10.3086C127.094 10.832 126.926 11.4258 126.855 12.0898L129.984 11.7852L129.82 10.4961Z" fill="black"/>
</svg>
